<svg xmlns="http://www.w3.org/2000/svg" viewBox="0 0 126.07 144.24">
  <defs>
    <style>
      .cls-1 {
        fill: #fff;
      }
      .cls-2 {
        fill: #fff;
      }
    </style>
  </defs>
  <g id="Layer_2" data-name="Layer 2">
    <g id="Layer_3" data-name="Layer 3">
      <path
        class="cls-1"
        d="M102.16,46.69a7.08,7.08,0,0,0-4.83-7.09.63.63,0,0,0-.84.48c-.25,1.31-.89,3.9,0,5.3C98.52,48.35,102.16,46.69,102.16,46.69Z"
      />
      <path
        class="cls-1"
        d="M102.13,4c.78,0,1.35.46,1,1-.49.91-1.15,6.81-.92,12.37a.29.29,0,0,0,.25.27,18.74,18.74,0,0,1,5.69,1.67.27.27,0,0,0,.12,0,.28.28,0,0,0,.24-.15c1-2,3.5-4.26,4-4.91.59-.8,3.93-2.72,5.35-3.19a6.47,6.47,0,0,1,1.9-.26c1.16,0,2.26.26,2.29.76a76.11,76.11,0,0,1-2.65,11.07c-.55,1.16-1.55,1.79-2.92,4.86a.3.3,0,0,0,0,.26c1.91,3.54,3.13,7.67,2.67,11.05-.74,5.45-8.56,10.53-9.25,12.23s-.28,5.64-.41,6.19a21.07,21.07,0,0,1-3.43,4.43c-.83.64-2.88.71-4.35.79h-.07c-1.21,0-3.21-1.64-3.93-2.26a.33.33,0,0,0-.19-.06.27.27,0,0,0-.25.15l-4.6,8.78a.22.22,0,0,0,0,.16,65.81,65.81,0,0,0,2.56,12.16c1.8,5.16-4,10.33-5.2,12.72-1.3,2.71-1.71,6.67-2.25,11.51-.49,4.3-5.76,7.41-6.73,8.12a.33.33,0,0,1-.16,0,.28.28,0,0,1-.2-.08c-.79-.77-4.26-4.72-5.4-7.44-1.3-3.09,1.94-7.59,1.94-7.59l4.22-7.6a.21.21,0,0,0,0-.19c-.14-.63-.94-4.08-1.42-6.19-.16-.68-.44-.93-.76-.93-.65,0-1.47,1-1.69,1.32a.27.27,0,0,0-.06.17v3.81a.15.15,0,0,1,0,.07A78.8,78.8,0,0,1,75,97.11c-1.23,3.11-5.62,8.4-7.88,8.4a1.06,1.06,0,0,1-.73-.26c-2.79-2.43-4.62-10.65-4.48-13.57,0-.6,3.58-4.1,4.23-6a37.77,37.77,0,0,0-.8-5.49l-13.26-.88h0a.29.29,0,0,0-.22.11c-.79,1-6.4,7.91-7.61,9-1.81,1.61-6.34,2.83-7.43,3.1a.27.27,0,0,0-.21.3,105.16,105.16,0,0,0,1.31,10.46c.57,2,.13,4-.1,6.4-.21,2.17-4.26,6.89-5.06,7.8a.27.27,0,0,1-.33.07,17.37,17.37,0,0,1-4.26-2.82c-1.92-1.82-4.14-3.5-2-8,1.85-3.85-1.06-5.42-1.24-12-.09-3.46,2.51-7.73,5-11a.29.29,0,0,0-.44-.37c-4.6,5-10.92,13.36-12.32,22.62-2,13.39-5.72,19.38-6.47,20.48a.27.27,0,0,1-.23.12.25.25,0,0,1-.12,0l-2.28-1-.08-.05A8.67,8.67,0,0,1,5,118.78l-1-8.24v-.08c.16-.84,2.66-14.8,2-17.21A28.38,28.38,0,0,1,5.22,87a.3.3,0,0,1,.11-.23A63.7,63.7,0,0,0,10.45,82c3.5-3.57,7.89-23.7,8.46-25.39.51-1.53.23-5.28.17-6.22a.28.28,0,0,0-.15-.23c-.68-.35-3.69-3.09-5.2-4.21-1.28-1-3.5-4.25-4.07-5.1a.28.28,0,0,1,.06-.37l2.14-1.88a.28.28,0,0,0,.08-.31l-1.59-4.4a.29.29,0,0,1,.23-.38L14,33a.3.3,0,0,0,.24-.32L14,31a.29.29,0,0,1,.43-.28A58.12,58.12,0,0,0,29.4,36.93a13.33,13.33,0,0,0,3.09.37c4.45,0,8-2.25,15.31-2.25a46.61,46.61,0,0,1,9.57,1.1,15.62,15.62,0,0,0,3.15.33c8.15,0,15.5-6.73,30.36-15.1h0s.36-.24.89-.56l.46-.77C92.19,16,98.9,7.58,100,5.4A2.41,2.41,0,0,1,102.13,4m0-4h0a6.43,6.43,0,0,0-5.66,3.56c-.18.36-1,1.49-1.57,2.4-3.09,4.54-5.74,8.66-6.47,12.2-4.27,2.43-7.9,4.69-11.12,6.7-7.35,4.59-12.2,7.62-16.79,7.62a11.07,11.07,0,0,1-2.33-.25A50.68,50.68,0,0,0,47.8,31.05a41.48,41.48,0,0,0-10.51,1.44,20.82,20.82,0,0,1-4.8.81A9.6,9.6,0,0,1,30.32,33a54,54,0,0,1-13.83-5.81,4.26,4.26,0,0,0-6.21,2.26l-.33.05a4.28,4.28,0,0,0-3.36,5.68l.73,2-.24.21A4.29,4.29,0,0,0,6.33,43c2,3.1,3.73,5.16,5,6.11.59.44,1.58,1.28,2.45,2l1.38,1.16a13,13,0,0,1-.08,3c-.15.47-.35,1.25-.8,3.07C10.51,73.64,8.56,78.11,7.59,79.18a59,59,0,0,1-4.76,4.47,4.29,4.29,0,0,0-1.61,3.43,32.62,32.62,0,0,0,.86,7.13c.15,1.6-.74,8.5-2,15.54A4,4,0,0,0,0,111l1,8.24a12.65,12.65,0,0,0,4.51,8.3,4,4,0,0,0,1.07.65l2.28,1a4.21,4.21,0,0,0,1.68.34,4.25,4.25,0,0,0,3.54-1.88c1.14-1.67,5-8.22,7.11-22.12a25.63,25.63,0,0,1,1.09-4.37l.06.2c.6,1.88.58,2,.26,2.67-3.33,6.91.61,10.59,2.5,12.36l.32.3a20.88,20.88,0,0,0,5.33,3.55,4.18,4.18,0,0,0,1.8.4,4.27,4.27,0,0,0,3.22-1.46c5.69-6.5,6-9.18,6-10.07,0-.47.1-.93.15-1.37a15.67,15.67,0,0,0-.19-6.51,66.55,66.55,0,0,1-.88-6.67,18.39,18.39,0,0,0,6-3.1c1.08-1,4.11-4.59,6.85-8L62,84c0,.31.07.61.11.88-.49.7-1.33,1.71-1.79,2.27-1.47,1.76-2.28,2.74-2.35,4.33-.17,3.35,1.62,13.09,5.84,16.77a5,5,0,0,0,3.36,1.25,7.75,7.75,0,0,0,4.43-1.7l0,.07c1.51,3.58,5.6,8.06,6.29,8.73a4.27,4.27,0,0,0,3,1.23,4.21,4.21,0,0,0,2.49-.81l.3-.2c2-1.36,7.43-5,8.07-10.72l.05-.47c.47-4.15.87-7.73,1.84-9.74.14-.27.73-1.06,1.16-1.63C97.13,91.18,101,86,99,80.12A57.82,57.82,0,0,1,96.77,70l2.15-4.09a6.36,6.36,0,0,0,2.74.65H102l.32,0c2.1-.12,4.49-.25,6.24-1.61,1-.76,4.4-4.7,4.87-6.65a9.06,9.06,0,0,0,.13-2.34,22.75,22.75,0,0,1,.07-3.05c.35-.37,1-.95,1.45-1.4,2.94-2.76,7.39-6.92,8.08-12,.6-4.36-.86-8.76-2.22-11.72a13,13,0,0,1,.94-1.4A10.8,10.8,0,0,0,123,24.43c.72-1.49,3.16-11.25,3-13.09,0-.75-.6-4.48-6.28-4.48a10.31,10.31,0,0,0-3.15.46c-1.5.49-5.85,2.69-7.28,4.57l-.54.58c-.55.57-1.22,1.29-1.88,2.09-.24-.07-.48-.15-.72-.21a44.58,44.58,0,0,1,.64-7.73,4.54,4.54,0,0,0-.23-4.22A5.11,5.11,0,0,0,102.13,0Z"
      />
      <path
        class="cls-1"
        d="M104.6,61.56c-1.39,0-2.65-1.57-3.67-3.25-.67-1.1-.55-.42-.55-.42s.71,9,5.62,4.12a17.16,17.16,0,0,0,1.15-1.43A3.12,3.12,0,0,1,104.6,61.56Z"
      />
      <path
        class="cls-1"
        d="M106.44,55.91a2.08,2.08,0,0,0,1.06,3.3c-1,1.27-2.79.35-2.76-1.72C104.76,56.06,105.75,55.54,106.44,55.91Z"
      />
      <rect
        class="cls-2"
        x="97.87"
        y="40.51"
        width="6.6"
        height="3.01"
        rx="1.51"
        transform="translate(-4.2 12.05) rotate(-6.68)"
      />
      <path
        class="cls-1"
        d="M54.58,137.94a105.7,105.7,0,0,1,35.91,6.24.94.94,0,0,0,.76-1.71,78.89,78.89,0,0,0-73.34,0,.94.94,0,0,0,.77,1.71A105.69,105.69,0,0,1,54.58,137.94Z"
      />
      <path
        class="cls-1"
        d="M44.77,134.6c1.79-3.62,5.89-6,7.87-7a.44.44,0,0,1,.61.56c-.5,1.21-1.08,3.08-.2,3.65a.44.44,0,0,0,.58-.1,10.6,10.6,0,0,1,5.85-3.31A.44.44,0,0,1,60,129a6.6,6.6,0,0,0-.88,3,.45.45,0,0,0,.73.27A10,10,0,0,1,65,130.49a.44.44,0,0,1,.38.72,3.42,3.42,0,0,0-.77,3.58.42.42,0,0,1-.29.6c-4.3,1-11.63.82-12,.81h0l-7.14-1A.44.44,0,0,1,44.77,134.6Z"
      />
    </g>
  </g>
</svg>
