<svg xmlns="http://www.w3.org/2000/svg" viewBox="0 0 217.36 200.41">
  <defs>
    <style>
      .cls-1 {
        fill: #ffffff;
      }
      .cls-2 {
        fill: #cccccc;
      }
    </style>
  </defs>
  <g id="Layer_2" data-name="Layer 2">
    <g id="Layer_2-2" data-name="Layer 2">
      <path class="cls-1" d="M7.92,162.18V182H18.69v7.34H0V162.18Z" />
      <path
        class="cls-1"
        d="M28.53,162.22a4.69,4.69,0,0,1-1.41,3.44,4.6,4.6,0,0,1-3.4,1.41,4.71,4.71,0,0,1-3.43-1.41,4.88,4.88,0,0,1,0-6.88,4.71,4.71,0,0,1,3.43-1.41,4.6,4.6,0,0,1,3.4,1.41A4.7,4.7,0,0,1,28.53,162.22Zm-1,7.17v19.93h-7.7V169.39Z"
      />
      <path
        class="cls-1"
        d="M44.18,169.39H52.1l-6.46,19.93H35l-6.19-19.93h8.32l3.57,13.53Z"
      />
      <path
        class="cls-1"
        d="M73.14,181.45l1.2,4.67a17.09,17.09,0,0,1-11.08,3.65c-3.76,0-6.62-.91-8.6-2.73s-3-4.38-3-7.68q0-10.43,12.12-10.42a14.89,14.89,0,0,1,7.49,1.66,5.29,5.29,0,0,1,2.86,4.84,4.76,4.76,0,0,1-2.37,4.33,12,12,0,0,1-6.31,1.45,14.75,14.75,0,0,1-5.21-.84A3.59,3.59,0,0,0,61.7,183a6.18,6.18,0,0,0,3.29.72A15.16,15.16,0,0,0,73.14,181.45Zm-9.93-6.72q-2.72,0-3,3.16a5.71,5.71,0,0,0,4-.44A1.73,1.73,0,0,0,65.3,176C65.3,175.15,64.61,174.73,63.21,174.73Z"
      />
      <path
        class="cls-1"
        d="M90.15,182l1.91,4.9a7.6,7.6,0,0,1-6,2.89q-4.59,0-7.43-5.11t-2.85-13.8q0-8,2.53-12.41a8,8,0,0,1,7.3-4.42,5.72,5.72,0,0,1,4.8,2.07c1.07,1.38,1.61,3.53,1.61,6.43q0,9-6.59,17.36c.84,1.84,1.81,2.76,2.94,2.76A2.78,2.78,0,0,0,90.15,182Zm-6.63-14.55a39.72,39.72,0,0,0,.8,8.63A26.41,26.41,0,0,0,87.12,164a7.93,7.93,0,0,0-.3-2.61,1.09,1.09,0,0,0-1.08-.77c-.78,0-1.35.54-1.7,1.62A18.55,18.55,0,0,0,83.52,167.43Z"
      />
      <path
        class="cls-1"
        d="M116.11,169.39v21.45a20,20,0,0,1-.5,5.09,5.69,5.69,0,0,1-2.13,3,8,8,0,0,1-5,1.47,8.36,8.36,0,0,1-5.32-1.56,5.33,5.33,0,0,1-2-4.45,7,7,0,0,1,.26-2,4.57,4.57,0,0,1,.82-1.56,9.47,9.47,0,0,1,1-1.1c.31-.28.72-.63,1.23-1s.89-.73,1.13-.95a10.86,10.86,0,0,1-4.27,1,6.67,6.67,0,0,1-4.84-1.68,5.89,5.89,0,0,1-1.75-4.46c0-.42,0-1.24.13-2.48s.14-2.06.14-2.46a3.13,3.13,0,0,0-.46-1.9,1.6,1.6,0,0,0-1.37-.59,2.72,2.72,0,0,0-.84.13v-5.7a11.84,11.84,0,0,1,4.14-.71,6.18,6.18,0,0,1,4.67,1.6,6.91,6.91,0,0,1,1.51,4.9c0,.4,0,1-.07,1.9s-.06,1.47-.06,1.79a4.42,4.42,0,0,0,.63,2.64,2.67,2.67,0,0,0,2.26.83,3,3,0,0,0,2.25-.73,3.19,3.19,0,0,0,.69-2.25V169.39Zm-7.7,24.12v-4.85q-3.25,2.19-3.25,4.94c0,1.36.53,2,1.6,2a1.4,1.4,0,0,0,1.24-.59A2.65,2.65,0,0,0,108.41,193.51Z"
      />
      <path
        class="cls-1"
        d="M143,169.39v5.83h-4.85v15.62a20.07,20.07,0,0,1-.5,5.07,5.93,5.93,0,0,1-2.28,3.15,7.82,7.82,0,0,1-4.83,1.35,8.53,8.53,0,0,1-5.3-1.53,5.19,5.19,0,0,1-2-4.39q0-5.3,7.21-6.77v-12.5h-3.38v-5.83h3.38v-3.61c0-4,.84-6.73,2.53-8.25a9.41,9.41,0,0,1,6.59-2.29,16.4,16.4,0,0,1,4.86.75l-.63,6.41a7.43,7.43,0,0,0-2.76-.62,2.54,2.54,0,0,0-2.12,1,3.89,3.89,0,0,0-.77,2.5v4.14ZM130.47,190c-2.16,1.25-3.25,2.54-3.25,3.87a1.89,1.89,0,0,0,.44,1.27,1.5,1.5,0,0,0,1.21.51,1.37,1.37,0,0,0,1.2-.59,2.67,2.67,0,0,0,.4-1.54Z"
      />
      <path
        class="cls-1"
        d="M164,189.32h-6.4l-.89-2.62a4.08,4.08,0,0,1-2,2.36,9.53,9.53,0,0,1-4.12.71,9.71,9.71,0,0,1-5.77-1.44q-2-1.43-2-4.7a5.36,5.36,0,0,1,1.77-4.46q1.77-1.42,6.06-1.42a14.81,14.81,0,0,1,4.1.4,2.65,2.65,0,0,1,1.64,1.29V177.8q0-2.67-5-2.67a19.78,19.78,0,0,0-6.78,1.2v-5.56a21.11,21.11,0,0,1,8.9-1.78Q164,169,164,176.77Zm-7.61-4.71v-2.94a7.72,7.72,0,0,0-2.8-.45,4.16,4.16,0,0,0-2,.36,1.55,1.55,0,0,0-.63,1.47,2,2,0,0,0,.61,1.7,3.46,3.46,0,0,0,2.11.48A4.36,4.36,0,0,0,156.4,184.61Z"
      />
      <path
        class="cls-1"
        d="M181.12,168.94v7a18,18,0,0,0-3-.31,3.57,3.57,0,0,0-2.67.89,4.3,4.3,0,0,0-.84,3v9.79h-7.7V169.39h7.7v3.33a5,5,0,0,1,2.19-2.92A8.81,8.81,0,0,1,181.12,168.94Z"
      />
      <path
        class="cls-1"
        d="M217.36,189.32h-7.74V178.47a3.18,3.18,0,0,0-.69-2.29,3.09,3.09,0,0,0-2.25-.7,3,3,0,0,0-2.28.73,3.26,3.26,0,0,0-.66,2.26v10.85h-7.65V178.47a3.16,3.16,0,0,0-.7-2.27,3,3,0,0,0-2.24-.72,3,3,0,0,0-2.28.73,3.26,3.26,0,0,0-.66,2.26v10.85h-7.7V169.39h7.7v3.11a4,4,0,0,1,2-2.61,8.89,8.89,0,0,1,4.47-.95q5.85,0,6.89,4.05a4.53,4.53,0,0,1,2.06-3,7.92,7.92,0,0,1,4.35-1.09,10.91,10.91,0,0,1,3.67.59,5.94,5.94,0,0,1,2.56,1.64,4.1,4.1,0,0,1,.92,1.88,14.6,14.6,0,0,1,.24,3Z"
      />
    </g>
    <g id="Layer_3" data-name="Layer 3">
      <path
        class="cls-1"
        d="M153.45,46.69a7.08,7.08,0,0,0-4.83-7.09.63.63,0,0,0-.84.48c-.25,1.31-.9,3.9,0,5.3C149.8,48.35,153.45,46.69,153.45,46.69Z"
      />
      <path
        class="cls-1"
        d="M153.42,4c.78,0,1.35.46,1,1-.49.91-1.15,6.81-.92,12.37a.29.29,0,0,0,.25.27,18.74,18.74,0,0,1,5.69,1.67l.12,0a.28.28,0,0,0,.24-.15c1-2,3.5-4.26,4-4.91.58-.8,3.92-2.72,5.35-3.19a6.44,6.44,0,0,1,1.89-.26c1.17,0,2.27.26,2.3.76a78.81,78.81,0,0,1-2.65,11.07c-.55,1.16-1.55,1.79-2.92,4.86a.3.3,0,0,0,0,.26c1.91,3.54,3.13,7.67,2.67,11.05-.74,5.45-8.57,10.53-9.25,12.23s-.28,5.64-.41,6.19a20.82,20.82,0,0,1-3.44,4.43c-.82.64-2.87.71-4.34.79H153c-1.21,0-3.21-1.64-3.93-2.26a.33.33,0,0,0-.19-.06.27.27,0,0,0-.25.15L144,69.12a.22.22,0,0,0,0,.16,65.81,65.81,0,0,0,2.56,12.16c1.8,5.16-4,10.33-5.2,12.72-1.3,2.71-1.71,6.67-2.26,11.51-.48,4.3-5.75,7.41-6.72,8.12a.34.34,0,0,1-.17,0,.27.27,0,0,1-.19-.08c-.79-.77-4.26-4.72-5.4-7.44-1.3-3.09,1.94-7.59,1.94-7.59l4.22-7.6a.21.21,0,0,0,0-.19c-.14-.63-.94-4.08-1.42-6.19-.16-.68-.44-.93-.76-.93-.65,0-1.48,1-1.69,1.32a.27.27,0,0,0-.06.17v3.81a.15.15,0,0,1,0,.07,78.8,78.8,0,0,1-2.53,7.92c-1.23,3.11-5.62,8.4-7.88,8.4a1.1,1.1,0,0,1-.74-.26c-2.78-2.43-4.61-10.65-4.47-13.57,0-.6,3.58-4.1,4.23-6a37.77,37.77,0,0,0-.8-5.49l-13.26-.88h0a.28.28,0,0,0-.22.11c-.79,1-6.4,7.91-7.61,9-1.81,1.61-6.34,2.83-7.43,3.1a.29.29,0,0,0-.22.3c.13,1.42.8,8.68,1.32,10.46.57,2,.12,4-.1,6.4-.21,2.17-4.26,6.89-5.06,7.8a.27.27,0,0,1-.33.07,17.18,17.18,0,0,1-4.26-2.82c-1.92-1.82-4.14-3.5-2-8,1.85-3.85-1.06-5.42-1.24-12-.09-3.46,2.51-7.73,5-11a.28.28,0,0,0-.23-.46.27.27,0,0,0-.21.09c-4.6,5-10.92,13.36-12.32,22.62-2,13.39-5.72,19.38-6.47,20.48a.27.27,0,0,1-.23.12.25.25,0,0,1-.12,0l-2.28-1-.08-.05a8.73,8.73,0,0,1-3.09-5.68l-1-8.24v-.08c.15-.84,2.66-14.8,2-17.21A28.84,28.84,0,0,1,56.51,87a.29.29,0,0,1,.1-.23A61,61,0,0,0,61.74,82c3.5-3.57,7.89-23.7,8.46-25.39.51-1.53.23-5.28.17-6.22a.28.28,0,0,0-.15-.23c-.68-.35-3.69-3.09-5.2-4.21-1.29-1-3.5-4.25-4.07-5.1a.28.28,0,0,1,.06-.37l2.14-1.88a.28.28,0,0,0,.08-.31l-1.59-4.4a.29.29,0,0,1,.23-.38l3.4-.54a.29.29,0,0,0,.24-.32L65.32,31a.28.28,0,0,1,.28-.32.23.23,0,0,1,.14,0,58.41,58.41,0,0,0,15,6.25,13.25,13.25,0,0,0,3.08.37c4.46,0,8-2.25,15.32-2.25a46.61,46.61,0,0,1,9.57,1.1,15.54,15.54,0,0,0,3.15.33c8.15,0,15.5-6.73,30.36-15.1h0s.36-.24.89-.56l.45-.77c0-4.08,6.67-12.46,7.79-14.64A2.4,2.4,0,0,1,153.42,4m0-4h0a6.41,6.41,0,0,0-5.66,3.56c-.19.36-.95,1.49-1.57,2.4-3.1,4.54-5.74,8.66-6.47,12.2-4.27,2.43-7.9,4.69-11.12,6.7-7.35,4.59-12.2,7.62-16.79,7.62a10.93,10.93,0,0,1-2.33-.25,50.75,50.75,0,0,0-10.39-1.18,41.48,41.48,0,0,0-10.51,1.44,20.81,20.81,0,0,1-4.81.81A9.58,9.58,0,0,1,81.61,33a54,54,0,0,1-13.83-5.81,4.31,4.31,0,0,0-5.38.84,4.45,4.45,0,0,0-.84,1.42l-.32.05a4.28,4.28,0,0,0-3.36,5.68l.73,2-.24.21A4.31,4.31,0,0,0,57.61,43c2,3.1,3.74,5.16,5,6.11.59.44,1.58,1.28,2.45,2l1.38,1.16a13,13,0,0,1-.08,3c-.15.47-.35,1.25-.8,3.07-3.79,15.22-5.74,19.69-6.71,20.76a59,59,0,0,1-4.76,4.47,4.26,4.26,0,0,0-1.61,3.43,32,32,0,0,0,.86,7.13c.15,1.6-.74,8.5-2,15.54a4,4,0,0,0,0,1.25l1,8.24a12.61,12.61,0,0,0,4.51,8.3,4,4,0,0,0,1.07.65l2.28,1a4.21,4.21,0,0,0,1.68.34,4.25,4.25,0,0,0,3.54-1.88c1.14-1.67,5-8.22,7.11-22.12a24.72,24.72,0,0,1,1.09-4.37l.06.2c.6,1.88.58,2,.26,2.67-3.33,6.91.61,10.59,2.5,12.36l.31.3A21.07,21.07,0,0,0,82,120.21a4.18,4.18,0,0,0,1.8.4,4.29,4.29,0,0,0,3.22-1.46c5.69-6.5,5.94-9.18,6-10.07,0-.47.1-.93.15-1.37A15.67,15.67,0,0,0,93,101.2a66.55,66.55,0,0,1-.88-6.67,18.39,18.39,0,0,0,6-3.1c1.08-1,4.11-4.59,6.85-8l8.21.54c0,.31.07.61.1.88-.48.7-1.32,1.71-1.79,2.27-1.46,1.76-2.27,2.74-2.35,4.33-.16,3.35,1.63,13.09,5.84,16.77a5,5,0,0,0,3.37,1.25,7.75,7.75,0,0,0,4.43-1.7l0,.07c1.51,3.58,5.6,8.06,6.29,8.73a4.26,4.26,0,0,0,5.49.42l.3-.2c2-1.36,7.43-5,8.07-10.72l.05-.47c.47-4.15.87-7.73,1.83-9.74.14-.27.74-1.06,1.17-1.63,2.34-3.09,6.25-8.27,4.2-14.15A58.66,58.66,0,0,1,148.06,70l2.14-4.09a6.39,6.39,0,0,0,2.75.65h.3l.33,0c2.1-.12,4.49-.25,6.24-1.61,1-.76,4.4-4.7,4.87-6.65a9.06,9.06,0,0,0,.13-2.34,24.44,24.44,0,0,1,.06-3.05c.36-.37,1-.95,1.46-1.4,2.94-2.76,7.39-6.92,8.08-12,.6-4.36-.87-8.76-2.22-11.72a13,13,0,0,1,.94-1.4,10.22,10.22,0,0,0,1.17-1.85c.73-1.49,3.17-11.25,3-13.09,0-.75-.6-4.48-6.29-4.48a10.39,10.39,0,0,0-3.15.46c-1.49.49-5.84,2.69-7.27,4.57l-.55.58c-.54.57-1.21,1.29-1.88,2.09-.23-.07-.47-.15-.71-.21a44.58,44.58,0,0,1,.64-7.73,4.54,4.54,0,0,0-.23-4.22A5.13,5.13,0,0,0,153.42,0Z"
      />
      <path
        class="cls-1"
        d="M155.89,61.56c-1.39,0-2.66-1.57-3.67-3.25-.67-1.1-.55-.42-.55-.42s.71,9,5.62,4.12c-.09.09,1.37-1.59,1.15-1.43A3.15,3.15,0,0,1,155.89,61.56Z"
      />
      <path
        class="cls-1"
        d="M157.73,55.91a2.08,2.08,0,0,0,1.06,3.3c-1,1.27-2.79.35-2.76-1.72C156.05,56.06,157,55.54,157.73,55.91Z"
      />
      <rect
        class="cls-2"
        x="149.15"
        y="40.51"
        width="6.6"
        height="3.01"
        rx="1.51"
        transform="translate(-3.85 18.01) rotate(-6.68)"
      />
      <path
        class="cls-1"
        d="M105.87,137.94a105.75,105.75,0,0,1,35.91,6.24.94.94,0,0,0,.76-1.71,78.89,78.89,0,0,0-73.34,0,.94.94,0,0,0,.77,1.71A105.69,105.69,0,0,1,105.87,137.94Z"
      />
      <path
        class="cls-1"
        d="M96.05,134.6c1.8-3.62,5.9-6,7.88-7a.44.44,0,0,1,.61.56c-.5,1.21-1.08,3.08-.2,3.65a.44.44,0,0,0,.58-.1,10.61,10.61,0,0,1,5.84-3.31.44.44,0,0,1,.5.63,6.48,6.48,0,0,0-.88,3,.45.45,0,0,0,.73.27,10,10,0,0,1,5.15-1.83.44.44,0,0,1,.38.72,3.42,3.42,0,0,0-.77,3.58.43.43,0,0,1-.29.6c-4.3,1-11.63.82-12,.81h0l-7.15-1A.45.45,0,0,1,96.05,134.6Z"
      />
    </g>
  </g>
</svg>
